<?xml version="1.0" standalone="no"?>
<!DOCTYPE svg PUBLIC "-//W3C//DTD SVG 1.1//EN" "http://www.w3.org/Graphics/SVG/1.1/DTD/svg11.dtd" >
<svg xmlns="http://www.w3.org/2000/svg">
<metadata>Generated by IcoMoon</metadata>
<defs>
<font id="icomoon" horiz-adv-x="1024">
<font-face units-per-em="1024" ascent="960" descent="-64" />
<missing-glyph horiz-adv-x="1024" />
<glyph unicode="&#x20;" horiz-adv-x="512" d="" />
<glyph unicode="&#xe900;" glyph-name="illustration-Bordeaux" d="M614.396-60.877c-12.8 0-21.333 8.533-21.333 21.333 0 76.8-123.733 123.733-192 128-12.8 0-21.333 12.8-21.333 21.333 0 12.8 8.533 21.333 21.333 21.333 76.8-4.267 234.667-59.733 234.667-170.667 0-12.8-8.533-21.333-21.333-21.333zM106.667 101.257c-8.533 0-21.333 8.533-21.333 17.067 0 12.8 4.266 21.333 17.066 25.6 38.4 4.267 128 8.533 170.667 8.533 12.8 0 21.333-8.533 21.333-21.333s-8.533-21.333-21.333-21.333c-42.667 0-128-4.267-166.4-8.533zM251.729 3.136c-12.8 0-21.333 8.533-21.333 21.333 0 145.067 187.734 529.068 307.2 635.735 8.533 8.533 21.333 8.533 29.867 0s8.533-21.334 0-29.867c-110.933-98.135-290.133-469.335-290.133-601.601-4.267-17.067-12.8-25.6-25.6-25.6zM379.729 3.136c-12.8 0-21.333 8.533-21.333 21.333 0 145.067 140.8 486.4 264.533 593.068 8.533 8.533 21.333 8.533 29.867 0s8.533-21.334 0-29.867c-110.933-98.135-247.466-426.668-247.466-558.935-4.267-17.067-12.8-25.6-25.6-25.6zM699.729 109.798c-4.267 0-4.267 0-8.533 0-8.533 4.267-17.067 12.8-12.8 25.6 25.6 162.133-4.267 273.067-46.933 396.8-4.267 21.333-12.8 38.4-17.067 59.733-4.267 12.8 4.267 21.333 12.8 25.6 12.8 4.267 21.333-4.267 25.6-12.8 4.267-21.333 12.8-42.667 17.067-59.733 25.6-89.6 55.467-174.933 55.467-277.333 29.867 102.4 38.4 230.4-8.533 324.267-4.267 8.533-4.267 17.067 4.267 21.333 4.267 8.533 12.8 8.533 21.333 8.533 89.6-25.6 136.533-38.4 179.2-81.067-8.533 51.2-34.133 93.867-64 123.733-34.133 29.867-76.8 46.933-119.467 46.933-8.533 0-17.067 4.267-21.333 8.533-4.267 8.533-4.267 17.067 0 21.333 12.8 21.333 21.333 46.933 34.133 72.533 8.533 25.6 21.333 55.467 38.4 81.067-98.133-29.867-153.6-55.467-157.867-85.333 0-8.533-8.533-17.067-12.8-17.067-8.533-4.267-17.067 0-21.333 4.267-59.733 68.267-192 119.467-324.267 115.2 102.4-34.133 196.267-72.533 187.734-145.067 0-8.533-4.267-17.067-12.8-17.067-17.067-4.267-29.867-8.533-46.934-17.067-76.8-25.6-166.4-51.2-243.2-136.533 196.267 59.733 328.534 81.067 396.801 64 12.8-4.267 17.067-12.8 17.067-25.6-4.267-12.8-12.8-17.067-25.6-17.067-38.4 8.533-140.8 8.533-435.2-85.333-8.533-4.267-17.067 0-21.333 8.533s-4.267 17.067 0 25.6c89.6 140.8 213.332 179.2 302.932 204.8 12.8 4.267 21.334 8.533 29.867 8.533-12.8 38.4-98.133 68.267-183.466 93.867-17.067 4.267-38.401 12.8-55.468 21.333-8.533 4.267-12.799 12.8-12.799 21.333s8.533 17.067 17.066 21.333c157.867 42.667 332.8-8.533 426.667-89.6 29.867 42.667 115.2 68.267 256 110.933 12.8 4.267 21.333-4.267 25.6-12.8s0-21.333-12.8-25.6c-42.667-17.067-64-72.533-81.067-123.733-4.267-17.067-12.8-34.133-21.333-51.2 42.667-4.267 85.333-25.6 115.2-55.467 51.2-51.2 81.067-132.267 81.067-221.867 0-8.533-4.267-17.067-12.8-21.333s-17.067 0-25.6 8.533c-46.933 64-76.8 81.067-162.133 106.667 46.933-149.333-4.267-345.6-59.733-448-4.267 0-8.533-4.267-17.067-4.267z" />
<glyph unicode="&#xe901;" glyph-name="illustration-Lyon" d="M512 746.667c-12.8 0-21.333 8.533-21.333 21.333v170.667c0 12.8 8.533 21.333 21.333 21.333s21.333-8.533 21.333-21.333v-170.667c0-12.8-8.533-21.333-21.333-21.333zM576 874.667h-128c-12.8 0-21.333 8.533-21.333 21.333s8.533 21.333 21.333 21.333h128c12.8 0 21.333-8.533 21.333-21.333s-8.533-21.333-21.333-21.333zM320 21.325h-298.667c-12.8 0-21.333 8.533-21.333 21.333v341.333c0 8.533 4.266 17.067 12.799 17.067l298.667 157.867c8.533 4.267 12.8 4.267 21.333 0 4.267-4.267 8.534-12.8 8.534-17.067v-499.2c0-12.8-8.533-21.333-21.333-21.333zM42.667 63.991h256v439.467l-256-132.267v-307.2zM1002.667 21.325h-298.667c-12.8 0-21.333 8.533-21.333 21.333v499.2c0 8.533 4.267 12.8 8.533 17.067s12.8 4.267 21.333 0l298.667-157.867c8.533-4.267 12.8-12.8 12.8-17.067v-341.333c0-12.8-8.533-21.333-21.333-21.333zM725.333 63.991h256v307.2l-256 132.267v-439.467zM234.667 149.333h-128c-12.8 0-21.333 8.533-21.333 21.333v106.667c0 46.933 38.4 85.333 85.333 85.333s85.333-38.4 85.333-85.333v-106.667c0-12.8-8.533-21.333-21.333-21.333zM128 192h85.333v85.333c0 25.6-17.067 42.667-42.667 42.667s-42.667-17.067-42.667-42.667v-85.333zM917.333 149.333h-128c-12.8 0-21.333 8.533-21.333 21.333v106.667c0 46.933 38.4 85.333 85.333 85.333s85.333-38.4 85.333-85.333v-106.667c0-12.8-8.533-21.333-21.333-21.333zM810.667 192h85.333v85.333c0 25.6-17.067 42.667-42.667 42.667s-42.667-17.067-42.667-42.667v-85.333zM704.009-63.991h-85.333c-12.8 0-21.333 8.533-21.333 21.333v320c0 46.933-38.4 85.333-85.333 85.333s-85.333-38.4-85.333-85.333v-320c0-12.8-8.535-21.333-21.335-21.333h-85.333c-12.8 0-21.333 8.533-21.333 21.333v618.667h-64c-8.533 0-17.067 4.266-21.333 17.066-4.267 8.533 0 17.067 8.534 25.6l277.334 170.667c8.533 4.267 17.067 4.267 21.333 0l277.333-170.667c8.533-4.267 12.8-12.8 8.533-25.6-4.267-8.533-12.8-17.066-21.333-17.066h-59.733v-618.667c0-12.8-8.533-21.333-21.333-21.333zM640.009-21.325h42.667v618.667c0 12.8 8.533 21.333 21.333 21.333h8.533l-200.533 123.733-200.535-123.733h8.534c12.8 0 21.333-8.533 21.333-21.333v-618.667h42.667v298.667c0 72.533 55.468 128 128.001 128s128-55.467 128-128v-298.667z" />
<glyph unicode="&#xe902;" glyph-name="illustration-Marseille" d="M490.667 22.396c-17.067 0-448 0-448 106.667l-42.667 379.733v4.267c0 12.8 8.533 21.333 21.333 21.333s21.333-8.533 21.333-17.067v-4.267c12.8-21.333 170.667-64 448-64 273.067 0 435.2 42.667 448 64 0 12.8 12.8 21.333 21.333 17.067 12.8 0 21.333-8.533 21.333-21.333v-4.267l-42.667-379.733c0-102.4-430.933-102.4-448-102.4zM46.933 461.862l38.4-328.533c8.533-25.6 153.6-68.267 405.333-68.267s396.8 42.667 405.333 64l38.4 332.8c-119.467-55.467-426.667-55.467-443.733-55.467s-320 0-443.733 55.467zM490.667 406.396c-21.333 0-490.667 0-490.667 106.667s469.333 106.667 490.667 106.667c21.333 0 490.667 0 490.667-106.667s-469.333-106.667-490.667-106.667zM490.667 577.062c-277.333 0-435.2-42.667-448-64 12.8-21.333 170.667-64 448-64 268.8 0 430.933 38.4 448 64-17.067 25.6-179.2 64-448 64zM490.667 577.067c-12.8 0-21.333 8.533-21.333 21.333v213.333c0 8.533 4.267 17.067 12.8 17.067 8.533 4.267 17.067 4.267 21.333 0l85.333-64c4.267-4.267 8.533-8.533 8.533-17.067s-4.267-12.8-8.533-17.067l-76.8-59.733v-76.8c0-8.533-8.533-17.067-21.333-17.067zM512 769.067v-42.667l29.867 21.333-29.867 21.333zM917.333 534.4c-12.8 0-21.333 8.533-21.333 21.333v213.333c0 8.533 4.267 17.067 12.8 17.067 8.533 4.267 17.067 4.267 21.333 0l85.333-64c4.267-4.267 8.533-8.533 8.533-17.067s-4.267-12.8-8.533-17.067l-76.8-59.733v-76.8c0-8.533-8.533-17.067-21.333-17.067zM938.667 726.4v-42.667l29.867 21.333-29.867 21.333zM21.333 491.733c-12.8 0-21.333 8.533-21.333 21.333v256c0 8.533 4.267 17.067 12.8 17.067 8.533 4.267 17.067 4.267 21.333 0l85.333-64c4.267-4.267 8.533-8.533 8.533-17.067s-4.267-12.8-8.533-17.067l-76.8-59.733v-119.467c0-8.533-8.533-17.067-21.333-17.067zM42.667 726.4v-42.667l29.867 21.333-29.867 21.333zM618.667 43.729c-12.8 0-21.333 8.533-21.333 21.333v106.667c0 12.8-8.533 21.333-21.333 21.333h-170.667c-12.8 0-21.333-8.533-21.333-21.333v-106.667c0-12.8-8.533-21.333-21.333-21.333s-21.333 8.533-21.333 21.333v106.667c0 34.133 29.867 64 64 64h170.667c34.133 0 64-29.867 64-64v-106.667c0-12.8-8.533-21.333-21.333-21.333zM571.729 406.396h-4.267c-12.8 4.267-17.067 12.8-17.067 25.6l46.933 170.667c4.267 12.8 12.8 17.067 25.6 17.067s17.067-12.8 17.067-25.6l-46.933-170.667c-4.267-8.533-12.8-17.067-21.333-17.067zM409.606 406.391c-8.533 0-17.067 4.267-21.333 17.067l-46.933 170.665c-4.267 12.8 4.267 21.333 17.067 25.6s21.333-4.267 25.6-17.067l46.932-170.665c4.267-12.8-4.267-21.333-17.065-25.6h-4.267zM746.662 427.742c-4.267 0-8.533 0-12.8 4.267-8.533 8.533-8.533 21.333-4.267 29.867l85.333 106.665c8.533 8.533 21.333 12.8 29.867 4.267s8.533-21.333 4.267-29.867l-85.333-106.665c-4.267-4.267-8.533-8.533-17.067-8.533zM234.676 427.742c-4.267 0-12.8 4.267-17.067 8.533l-85.333 106.665c-8.533 8.533-4.267 21.333 4.267 29.867s21.333 4.267 29.867-4.267l85.333-106.665c8.533-8.533 4.267-21.333-4.267-29.867-4.267 0-8.533-4.267-12.8-4.267z" />
<glyph unicode="&#xe903;" glyph-name="illustration-Nantes" d="M134.705 493.538l-37.888-151.552 88.406 50.517-50.518 101.035zM101.704 537.454c6.725 26.9 43.288 30.914 55.689 6.113l71.407-142.816c7.089-14.178 1.867-31.424-11.895-39.287l-124.962-71.407c-22.838-13.047-50.172 7.659-43.793 33.178l53.555 214.22zM931.964 493.538l37.888-151.552-88.405 50.517 50.517 101.035zM964.962 537.454c-6.724 26.9-43.29 30.914-55.689 6.113l-71.407-142.816c-7.087-14.178-1.869-31.424 11.895-39.287l124.962-71.407c22.839-13.047 50.172 7.659 43.793 33.178l-53.555 214.22zM789.333 384c-12.8 0-21.333 8.533-21.333 21.333v106.667c0 12.8 8.533 21.333 21.333 21.333s21.333-8.533 21.333-21.333v-106.667c0-12.8-8.533-21.333-21.333-21.333zM277.333 384c-12.8 0-21.333 8.533-21.333 21.333v106.667c0 12.8 8.533 21.333 21.333 21.333s21.333-8.533 21.333-21.333v-106.667c0-12.8-8.533-21.333-21.333-21.333zM234.667-21.329h-170.667c-12.8 0-21.333 8.533-21.333 21.333v273.067c0 25.6 12.8 46.933 34.133 55.467l145.068 72.533c8.533 4.267 12.8 4.267 21.333 0s8.532-12.8 8.532-17.067v-384c4.267-12.8-4.266-21.333-17.066-21.333zM85.333 21.338h128v328.533l-115.2-59.733c-8.533-4.267-12.8-12.8-12.8-17.067v-251.733zM1002.667-21.329h-170.667c-12.8 0-21.333 8.533-21.333 21.333v384c0 8.533 4.267 12.8 8.533 17.067s12.8 4.267 21.333 0l145.067-72.533c21.333-12.8 34.133-34.133 34.133-55.467v-273.067c4.267-12.8-4.267-21.333-17.067-21.333zM853.333 21.338h128v251.733c0 8.533-4.267 17.067-12.8 17.067l-115.2 59.733v-328.533zM618.667-21.333h-170.667c-12.8 0-21.333 8.533-21.333 21.333v128c0 59.733 46.933 106.667 106.667 106.667s106.667-46.933 106.667-106.667v-128c0-12.8-8.533-21.333-21.333-21.333zM469.333 21.333h128v106.667c0 34.133-29.867 64-64 64s-64-29.867-64-64v-106.667zM533.333 746.667c-12.8 0-21.333 8.533-21.333 21.333v128c0 12.8 8.533 21.333 21.333 21.333s21.333-8.533 21.333-21.333v-128c0-12.8-8.533-21.333-21.333-21.333zM832-21.333h-597.333c-12.8 0-21.333 8.533-21.333 21.333v384c0 8.533 8.533 21.333 17.066 21.333 0 0 153.6 21.333 302.934 21.333s298.667-21.333 302.933-21.333c8.533 0 17.067-8.533 17.067-21.333v-384c0-12.8-8.533-21.333-21.333-21.333zM256 21.333h554.667v345.6c-42.667 4.267-162.133 17.067-277.333 17.067s-234.667-12.8-277.333-17.067v-345.6zM149.333 192c-12.8 0-21.333 8.533-21.333 21.333v42.667c0 12.8 8.533 21.333 21.333 21.333s21.333-8.533 21.333-21.333v-42.667c0-12.8-8.533-21.333-21.333-21.333zM917.333 192c-12.8 0-21.333 8.533-21.333 21.333v42.667c0 12.8 8.533 21.333 21.333 21.333s21.333-8.533 21.333-21.333v-42.667c0-12.8-8.533-21.333-21.333-21.333zM746.667 234.667c-12.8 0-21.333 8.533-21.333 21.333v42.667c0 12.8 8.533 21.333 21.333 21.333s21.333-8.533 21.333-21.333v-42.667c0-12.8-8.533-21.333-21.333-21.333zM320 234.667c-12.8 0-21.333 8.533-21.333 21.333v42.667c0 12.8 8.533 21.333 21.333 21.333s21.333-8.533 21.333-21.333v-42.667c0-12.8-8.533-21.333-21.333-21.333zM448 256c-12.8 0-21.333 8.533-21.333 21.333v21.333c0 12.8 8.533 21.333 21.333 21.333s21.333-8.533 21.333-21.333v-21.333c0-12.8-8.533-21.333-21.333-21.333zM618.667 256c-12.8 0-21.333 8.533-21.333 21.333v21.333c0 12.8 8.533 21.333 21.333 21.333s21.333-8.533 21.333-21.333v-21.333c0-12.8-8.533-21.333-21.333-21.333zM277.333 490.667c-4.267 0-8.533 0-12.8 4.267s-8.534 8.533-8.534 17.067c0 153.6 123.733 277.333 277.333 277.333s277.333-123.733 277.333-277.333c0-4.267-4.267-12.8-8.533-17.067s-12.8-4.267-17.067-4.267c0 0-106.667 21.333-251.733 21.333s-251.733-21.333-256-21.333c0 0 4.267 0 0 0zM533.333 746.667c-119.467 0-221.867-89.6-234.667-209.066 42.667 4.267 128 17.066 234.667 17.066s192-12.8 234.667-17.066c-12.8 119.467-115.2 209.066-234.667 209.066z" />
<glyph unicode="&#xe904;" glyph-name="illustration-Organisation" horiz-adv-x="939" d="M917.333 448h-256c-12.8 0-21.333 8.533-21.333 21.333v256c0 12.8 8.533 21.333 21.333 21.333h256c12.8 0 21.333-8.533 21.333-21.333v-256c0-12.8-8.533-21.333-21.333-21.333zM682.667 490.667h213.333v213.333h-213.333v-213.333zM277.333 661.333h-256c-12.8 0-21.333 8.533-21.333 21.333v256c0 12.8 8.533 21.333 21.333 21.333h256c12.8 0 21.333-8.533 21.333-21.333v-256c0-12.8-8.533-21.333-21.333-21.333zM42.667 704h213.333v213.333h-213.333v-213.333zM277.333-64h-256c-12.8 0-21.333 8.533-21.333 21.333v256c0 12.8 8.533 21.333 21.333 21.333h256c12.8 0 21.333-8.533 21.333-21.333v-256c0-12.8-8.533-21.333-21.333-21.333zM42.667-21.333h213.333v213.333h-213.333v-213.333zM149.333 277.333c-12.8 0-21.333 8.533-21.333 21.333v384c0 12.8 8.533 21.333 21.333 21.333s21.333-8.533 21.333-21.333v-384c0-12.8-8.533-21.333-21.333-21.333zM618.662 64h-255.999c-8.533 0-17.067 4.267-21.333 12.8s-0.001 17.067 4.266 21.333l85.333 85.333c8.533 8.533 21.333 8.533 29.867 0s8.533-21.329 0-29.862l-46.932-46.938h204.799c81.067 0 149.333 68.267 149.333 149.333v213.333c0 12.8 8.533 21.333 21.333 21.333s21.333-8.533 21.333-21.333v-213.333c0-106.667-85.333-192-192-192zM448.009-21.329c-4.267 0-12.8 0.004-17.067 4.271l-85.333 85.333c-8.533 8.533-8.533 21.333 0 29.867s21.334 8.533 29.867 0l85.333-85.333c8.533-8.533 8.533-21.333 0-29.867 0-4.267-8.533-4.271-12.8-4.271zM149.343 277.338c-4.267 0-12.801 0.004-17.068 4.271l-85.333 85.333c-8.534 8.533-8.534 21.333 0 29.867s21.334 8.533 29.867 0l68.268-68.271 68.266 68.271c8.533 8.533 21.334 8.533 29.867 0s8.533-21.333 0-29.867l-85.333-85.333c4.267-4.267-4.267-4.271-8.534-4.271z" />
<glyph unicode="&#xe905;" glyph-name="illustration-Paris" d="M873.6-64h-170.667c-4.267 0-12.8 4.267-17.067 8.533s-4.267 8.533-4.267 17.067c0 4.267 0 12.8 0 17.067 0 93.867-76.8 170.667-170.667 170.667s-170.667-76.8-170.667-170.667c0-8.533 0-12.8 0-17.067s0-12.8-4.267-17.067c-4.267-4.267-8.533-8.533-17.067-8.533h-170.667c-8.533 0-17.067 4.267-17.067 12.8-4.267 8.533-4.267 17.067 0 21.333l25.6 34.133c128 179.2 290.133 401.067 290.133 806.4 0 12.8 8.533 21.333 21.333 21.333s21.333-8.533 21.333-21.333c0-418.133-166.4-648.533-298.667-832h106.667c0 119.467 93.867 213.333 213.333 213.333s213.333-93.867 213.333-213.333h106.667c-132.267 183.467-298.667 413.867-298.667 832 0 12.8 8.533 21.333 21.333 21.333s21.333-8.533 21.333-21.333c0-405.333 162.133-627.2 290.133-806.4l25.6-34.133c4.267-8.533 4.267-17.067 0-21.333 0-8.533-8.533-12.8-17.067-12.8zM617.604 576h-213.333c-12.8 0-21.333 8.533-21.333 21.333s8.533 21.333 21.333 21.333h213.333c12.8 0 21.333-8.533 21.333-21.333s-8.533-21.333-21.333-21.333zM553.6 789.324h-85.333c-8.533 0-12.8 4.267-17.067 8.534s-4.267 12.8 0 21.333l42.667 85.333c8.533 12.8 29.867 12.8 38.4 0l42.667-85.333c4.267-8.533 4.267-12.8 0-21.333-8.533-4.267-12.8-8.534-21.333-8.534zM510.938 874.667c-12.8 0-21.333 8.533-21.333 21.333v42.667c0 12.8 8.533 21.333 21.333 21.333s21.333-8.533 21.333-21.333v-42.667c0-12.8-8.533-21.333-21.333-21.333zM574.938 234.667h-128c-8.533 0-12.8 4.267-17.067 8.533s-4.267 12.8-4.267 21.333l42.667 128c4.267 8.533 12.8 12.8 21.333 12.8h42.667c8.533 0 17.067-4.267 21.333-12.8l42.667-128c4.267-8.533 0-12.8-4.267-21.333-4.267-4.267-8.533-8.533-17.067-8.533zM476.804 277.333h68.267l-29.867 85.333h-12.8l-25.6-85.333zM766.938 234.667h-490.667c-12.8 0-21.333 8.533-21.333 21.333s8.533 21.333 21.333 21.333h490.667c12.8 0 21.333-8.533 21.333-21.333s-8.533-21.333-21.333-21.333z" />
<glyph unicode="&#xe906;" glyph-name="illustration-Rennes" d="M727.236 614.671h-430.188c-7.822 0-15.643 3.741-19.554 11.223s0 14.964 3.911 18.705l215.093 224.456c7.821 7.482 19.554 7.482 27.375 0l215.091-224.456c3.913-3.741 7.825-14.964 3.913-18.705 0-7.482-7.821-11.223-15.642-11.223zM340.067 652.081h340.24l-172.075 179.565-168.165-179.565zM727.117-21.325h-430.188c-11.732 0-19.554 7.479-19.554 18.705 0 11.221 7.821 18.705 19.554 18.705h430.188c11.729 0 19.55-7.484 19.55-18.705 0-11.226-7.821-18.705-19.55-18.705zM961.788 53.491h-273.754c-11.733 0-19.554 7.479-19.554 18.701v336.687c0 11.221 7.821 18.705 19.554 18.705h273.754c11.733 0 19.554-7.484 19.554-18.705v-336.687c0-11.221-7.821-18.701-19.554-18.701zM707.588 90.897h234.645v299.277h-234.645v-299.277zM335.975 53.491h-273.755c-11.732 0-19.554 7.479-19.554 18.701v336.687c0 11.221 7.822 18.705 19.554 18.705h273.755c11.732 0 19.554-7.484 19.554-18.705v-336.687c0-11.221-7.822-18.701-19.554-18.701zM81.775 90.897h234.647v299.277h-234.647v-299.277zM512.201 352.794c-66.487 0-117.326 48.631-117.326 112.226 0 63.599 50.838 112.23 117.326 112.23 66.483 0 117.321-48.631 117.321-112.23 0-63.595-50.837-112.226-117.321-112.226zM512.201 539.84c-43.021 0-78.217-33.669-78.217-74.821 0-41.148 35.196-74.816 78.217-74.816 43.017 0 78.212 33.668 78.212 74.816 0 41.152-35.196 74.821-78.212 74.821zM531.776 427.601c-3.913 0-11.733 0-15.646 3.742l-19.554 18.705c-3.908 3.742-3.908 7.479-3.908 14.963v37.41c0 11.221 7.821 18.705 19.554 18.705 11.729 0 19.554-7.484 19.554-18.705v-29.931l15.642-14.963c7.821-7.479 7.821-18.705 0-26.185-3.913-3.742-11.733-3.742-15.642-3.742zM570.628-21.312h-117.325c-11.733 0-19.554 7.484-19.554 18.705v187.046c0 11.226 7.821 18.705 19.554 18.705h117.325c11.733 0 19.554-7.479 19.554-18.705v-187.046c0-11.221-7.821-18.705-19.554-18.705zM472.858 16.098h78.217v149.636h-78.217v-149.636zM961.788 390.204h-273.754c-11.733 0-19.554 7.479-19.554 18.705v149.637c0 11.223 7.821 18.705 19.554 18.705h195.537c7.821 0 15.646-3.741 15.646-11.223l78.212-149.639c3.913-7.479 3.913-11.221 0-18.705-3.908-3.738-7.821-7.479-15.642-7.479zM707.588 427.614h222.912l-58.662 112.227h-164.25v-112.227zM336.227 390.204h-273.755c-7.821 0-11.732 3.742-15.643 7.479-3.911 3.742-3.911 11.226 0 18.705l78.216 149.639c3.911 7.482 11.732 11.223 15.643 11.223h195.539c11.732 0 19.554-7.482 19.554-18.705v-149.637c0-11.226-7.821-18.705-19.554-18.705zM93.758 427.614h222.914v112.227h-164.253l-58.662-112.227zM688.064-21.35h-351.968c-11.732 0-19.554 7.484-19.554 18.705v635.962c0 11.223 7.821 18.705 19.554 18.705h351.968c11.733 0 19.554-7.482 19.554-18.705v-635.962c0-11.221-7.821-18.705-19.554-18.705zM355.649 16.060h312.865v598.552h-312.865v-598.552z" />
<glyph unicode="&#xe907;" glyph-name="illustration-Reussite" d="M444.297 490.667c-5.154 0-15.458 0-20.612 4.309l-103.059 86.196c-10.306 8.62-10.306 21.548 0 30.168s25.765 8.62 36.071 0l82.446-68.955 185.51 155.151c10.304 8.62 25.762 8.62 36.070 0 10.304-8.62 10.304-21.548 0-30.167l-206.118-172.392c5.15-4.309-5.154-4.309-10.308-4.309zM490.667 234.667c-200.533 0-362.667 162.133-362.667 362.667s162.133 362.667 362.667 362.667c200.533 0 362.667-162.133 362.667-362.667s-162.133-362.667-362.667-362.667zM490.667 917.333c-174.933 0-320-145.067-320-320s145.067-320 320-320c174.933 0 320 145.067 320 320s-145.067 320-320 320zM832.004-63.991c-4.267 0-8.533 0-8.533 4.267l-157.867 81.067-93.867-76.8c-4.267-4.267-12.8-4.267-17.067-4.267-8.533 0-12.8 4.267-12.8 12.8l-128 298.667c-4.267 12.8 0 21.333 12.8 29.867 12.8 4.267 21.333 0 29.867-12.8l115.2-273.067 85.333 68.267c8.533 4.267 17.067 4.267 21.333 4.267l123.733-59.733-110.933 311.467c-4.267 12.8 0 21.333 12.8 25.6s21.333 0 25.6-12.8l128-362.667c4.267-8.533 0-17.067-4.267-21.333-12.8-12.8-17.067-12.8-21.333-12.8zM149.333-63.996c-4.267 0-8.533 0-12.8 4.267-8.533 8.533-8.533 17.067-8.533 25.6l128 362.667c4.267 12.8 17.067 17.067 25.6 12.8 12.8-4.267 17.067-17.067 12.8-25.6l-110.933-311.467 123.733 59.733c8.533 4.267 17.067 4.267 21.333-4.267l81.067-64 34.133 157.867c4.267 12.8 12.8 17.067 25.6 17.067 12.8-4.267 17.067-12.8 17.067-25.6l-42.667-192c0-8.533-8.533-12.8-12.8-17.067-8.533-4.267-12.8 0-21.333 4.267l-93.867 76.8-157.867-81.067c0 0-4.267 0-8.533 0z" />
<glyph unicode="&#xe908;" glyph-name="illustration-screen-profil" d="M102.396 704.004c0 37.702 30.564 68.267 68.267 68.267h682.667c37.705 0 68.267-30.564 68.267-68.267v-426.667c0-37.705-30.562-68.267-68.267-68.267h-315.733v-76.8h187.733v-51.2h-426.667v51.2h187.733v76.8h-315.733c-37.702 0-68.267 30.562-68.267 68.267v426.667zM170.662 721.071c-9.425 0-17.067-7.641-17.067-17.067v-426.667c0-9.425 7.641-17.067 17.067-17.067h682.667c9.425 0 17.067 7.642 17.067 17.067v426.667c0 9.425-7.642 17.067-17.067 17.067h-682.667zM511.991 593.071c-38.481 0-69.214-30.799-69.214-68.228 0-37.431 30.733-68.228 69.214-68.228s69.214 30.797 69.214 68.228c0 37.429-30.733 68.228-69.214 68.228zM391.577 524.843c0 66.21 54.166 119.428 120.415 119.428s120.414-53.219 120.414-119.428c0-66.21-54.165-119.428-120.414-119.428s-120.415 53.218-120.415 119.428zM511.991 294.404c-55.296 0-103.107-27.469-129.968-72.785l-44.044 26.103c36.26 61.175 100.988 97.882 174.012 97.882s137.754-36.706 174.012-97.882l-44.045-26.103c-26.859 45.316-74.671 72.785-129.967 72.785z" />
<glyph unicode="&#xe909;" glyph-name="illustration-Strategie" d="M874.667-64h-768c-12.8 0-21.333 8.533-21.333 21.333v725.333c0 4.267 4.266 12.796 4.266 17.062l256 256c4.267 4.267 8.534 4.271 17.068 4.271h512c12.8 0 21.333-8.533 21.333-21.333v-981.333c0-12.8-8.533-21.333-21.333-21.333zM128-21.333h725.333v938.667h-482.133l-243.2-243.198v-695.469zM362.667 661.333h-256c-12.8 0-21.333 8.533-21.333 21.333s8.533 21.333 21.333 21.333h234.667v234.667c0 12.8 8.533 21.333 21.333 21.333s21.333-8.533 21.333-21.333v-256c0-12.8-8.533-21.333-21.333-21.333zM793.6 704h-136.533c-10.24 0-17.067 6.827-17.067 17.067v136.533c0 10.24 6.827 17.067 17.067 17.067 85.333 0 153.6-68.267 153.6-153.6 0-10.24-6.827-17.067-17.067-17.067zM674.133 738.133h102.4c-6.827 51.2-47.787 92.16-102.4 102.4v-102.4zM618.667 533.333c-82.133 0-149.333 67.2-149.333 149.333s67.2 149.333 149.333 149.333c11.2 0 18.667-7.467 18.667-18.667s-7.467-18.667-18.667-18.667c-63.467 0-112-48.533-112-112s48.533-112 112-112c63.467 0 112 48.533 112 112 0 11.2 7.467 18.667 18.667 18.667s18.667-7.467 18.667-18.667c0-82.133-67.2-149.333-149.333-149.333zM234.667 64c-12.8 0-21.333 8.533-21.333 21.333v85.333c0 12.8 8.533 21.333 21.333 21.333s21.333-8.533 21.333-21.333v-85.333c0-12.8-8.533-21.333-21.333-21.333zM320 64c-12.8 0-21.333 8.533-21.333 21.333v213.333c0 12.8 8.533 21.333 21.333 21.333s21.333-8.533 21.333-21.333v-213.333c0-12.8-8.533-21.333-21.333-21.333zM405.333 64c-12.8 0-21.333 8.533-21.333 21.333v341.333c0 12.8 8.533 21.333 21.333 21.333s21.333-8.533 21.333-21.333v-341.333c0-12.8-8.533-21.333-21.333-21.333zM752.764 192h-182.861c-9.139 0-15.236 8.533-15.236 21.333s6.097 21.333 15.236 21.333h182.861c9.139 0 15.236-8.533 15.236-21.333s-6.097-21.333-15.236-21.333zM752.764 64h-182.861c-9.139 0-15.236 8.533-15.236 21.333s6.097 21.333 15.236 21.333h182.861c9.139 0 15.236-8.533 15.236-21.333s-6.097-21.333-15.236-21.333z" />
<glyph unicode="&#xe90a;" glyph-name="interrogation-cercle" d="M512-21.333c259.204 0 469.333 210.129 469.333 469.333 0 259.206-210.129 469.333-469.333 469.333-259.206 0-469.333-210.128-469.333-469.333 0-259.204 210.128-469.333 469.333-469.333zM1024 448c0-282.769-229.231-512-512-512s-512 229.231-512 512c0 282.77 229.23 512 512 512s512-229.23 512-512zM417.167 627.409c6.77 5.973 14.138 11.648 22.1 17.024 8.166 5.376 16.926 10.055 26.283 14.037 9.361 3.982 19.516 7.068 30.464 9.259 10.953 2.389 22.801 3.584 35.541 3.584 17.323 0 33.054-2.389 47.189-7.168 14.336-4.779 26.581-11.648 36.736-20.608 10.155-8.761 18.022-19.413 23.595-31.957 5.577-12.544 8.363-26.581 8.363-42.112 0-15.133-2.189-28.274-6.571-39.424-4.378-10.953-9.856-20.51-16.427-28.672s-13.837-15.232-21.803-21.205c-7.765-5.973-15.13-11.648-22.101-17.024-6.967-5.175-13.039-10.355-18.219-15.531-4.975-4.979-7.962-10.654-8.96-17.024l-6.869-43.605h-50.475l-5.077 48.683c-1.195 9.357 0.102 17.523 3.883 24.491 3.985 7.168 9.161 13.641 15.531 19.413 6.571 5.973 13.841 11.648 21.803 17.024 7.966 5.577 15.433 11.55 22.4 17.92 6.972 6.571 12.745 13.837 17.323 21.802 4.779 8.163 7.168 17.82 7.168 28.971 0 7.168-1.391 13.539-4.181 19.115-2.586 5.774-6.272 10.652-11.051 14.635-4.779 4.181-10.551 7.367-17.323 9.557-6.571 2.19-13.739 3.285-21.504 3.285-11.349 0-21.005-1.295-28.971-3.883-7.765-2.389-14.434-5.177-20.011-8.363-5.376-2.987-9.954-5.775-13.739-8.363-3.78-2.389-7.168-3.584-10.155-3.584-7.168 0-12.343 2.987-15.531 8.96l-19.412 30.763zM473.613 275.281c0 6.174 1.097 12.045 3.285 17.621 2.389 5.577 5.577 10.355 9.557 14.336 3.985 3.981 8.764 7.168 14.336 9.557 5.577 2.389 11.55 3.584 17.92 3.584 6.374 0 12.245-1.195 17.621-3.584 5.577-2.389 10.355-5.577 14.336-9.557 4.181-3.981 7.467-8.759 9.856-14.336s3.584-11.447 3.584-17.621c0-6.37-1.195-12.343-3.584-17.92-2.389-5.376-5.675-10.057-9.856-14.037-3.981-3.981-8.759-7.070-14.336-9.259-5.376-2.389-11.247-3.584-17.621-3.584-6.37 0-12.343 1.195-17.92 3.584-5.572 2.189-10.351 5.278-14.336 9.259-3.981 3.981-7.168 8.661-9.557 14.037-2.189 5.577-3.285 11.55-3.285 17.92z" />
<glyph unicode="&#xe90b;" glyph-name="add-circle" d="M0 448c0-281.6 230.4-512 512-512s512 230.4 512 512c0 281.6-230.4 512-512 512s-512-230.4-512-512zM64 448c0 246.4 201.6 448 448 448s448-201.6 448-448c0-246.4-201.6-448-448-448s-448 201.6-448 448zM552.909 406.528v-219.883h-81.818v219.883h-219.882v81.818h219.882v219.882h81.818v-219.883h219.883v-81.818h-219.883z" />
<glyph unicode="&#xe90c;" glyph-name="add" d="M532.759 960l-4.227-983.032-67.027-0.287 4.231 983.030 67.023 0.288zM0.28 509.44l983.030 4.227-0.287-67.023-983.032-4.227 0.288 67.023z" />
<glyph unicode="&#xe90d;" glyph-name="bookmark" d="M819.2 886.857v-831.919l-307.2 147.908-307.2-147.908v831.919h614.4zM819.2 960h-614.4c-42.415 0-76.8-32.747-76.8-73.143v-950.857l384 184.892 384-184.892v950.857c0 40.396-34.385 73.143-76.8 73.143z" />
<glyph unicode="&#xe90e;" glyph-name="check" d="M853.333 635.733l-68.267 68.267-370.59-370.59-175.543 175.543-68.267-68.267 243.81-243.81 438.857 438.857z" />
<glyph unicode="&#xe90f;" glyph-name="close-circle" d="M0 448c0-281.6 230.4-512 512-512s512 230.4 512 512c0 281.6-230.4 512-512 512s-512-230.4-512-512zM64 448c0 246.4 201.6 448 448 448s448-201.6 448-448c0-246.4-201.6-448-448-448s-448 201.6-448 448zM569.852 447.433l155.482-155.482-57.852-57.852-155.482 155.482-155.48-155.482-57.853 57.852 155.481 155.482-155.481 155.48 57.853 57.853 155.48-155.481 155.482 155.481 57.852-57.853-155.482-155.48z" />
<glyph unicode="&#xe910;" glyph-name="close" d="M111.354 917.333l869.979-877.5-59.315-59.827-869.981 877.498 59.316 59.829zM42.667 38.498l869.982 877.5 59.315-59.83-869.98-877.497-59.317 59.827z" />
<glyph unicode="&#xe911;" glyph-name="cocument" d="M884.467 693.020l-268.796 255.997c-6.844 7.224-16.666 11.232-26.88 10.971h-383.993c-42.415 0-76.799-32.747-76.799-73.142v-877.702c0-40.397 34.384-73.143 76.799-73.143h614.388c42.415 0 76.8 32.747 76.8 73.143v658.277c0.273 9.727-3.934 19.081-11.52 25.6zM588.791 872.218l215.036-204.797h-215.036v204.797zM819.187 9.143h-614.388v877.702h307.197v-219.426c0-40.396 34.381-73.142 76.796-73.142h230.396v-585.135zM319.997 228.57h383.994v-73.143h-383.994v73.143zM319.997 447.996h383.994v-73.143h-383.994v73.143z" />
<glyph unicode="&#xe912;" glyph-name="contact" d="M950.857 832h-877.713c-40.396 0-73.143-34.385-73.143-76.8v-614.4c0-42.415 32.747-76.8 73.143-76.8h877.713c40.397 0 73.143 34.385 73.143 76.8v614.4c0 42.415-32.747 76.8-73.143 76.8zM870.4 755.2l-358.4-260.352-358.4 260.352h716.8zM73.143 140.8v579.456l418.010-304.128c12.54-9.131 29.154-9.131 41.694 0l418.010 304.128v-579.456h-877.713z" />
<glyph unicode="&#xe913;" glyph-name="download" d="M796.446 455.62l-40.107 40.823-215.893-219.46v555.017h-56.892v-555.017l-215.892 219.46-40.107-40.823 284.445-289.523 284.446 289.523zM796.446 195.046v-115.81h-568.89v115.81h-56.889v-115.81c0-31.979 25.47-57.903 56.889-57.903h568.89c31.415 0 56.887 25.924 56.887 57.903v115.81h-56.887z" />
<glyph unicode="&#xe914;" glyph-name="expand" d="M42.667 884.589c0 18.084 14.66 32.744 32.744 32.744h218.295c18.084 0 32.744-14.66 32.744-32.744s-14.66-32.744-32.744-32.744h-139.243l249.715-249.715c12.787-12.787 12.787-33.52 0-46.307s-33.52-12.787-46.307 0l-249.715 249.715v-139.243c0-18.084-14.66-32.744-32.744-32.744s-32.744 14.66-32.744 32.744v218.295zM697.549 884.589c0 18.084 14.66 32.744 32.747 32.744h218.295c18.082 0 32.742-14.66 32.742-32.744v-218.295c0-18.084-14.66-32.744-32.742-32.744-18.086 0-32.747 14.66-32.747 32.744v139.243l-249.715-249.715c-12.787-12.787-33.519-12.787-46.306 0s-12.787 33.52 0 46.307l249.715 249.715h-139.243c-18.086 0-32.747 14.66-32.747 32.744zM404.177 340.177c12.787-12.787 12.787-33.519 0-46.306l-249.715-249.715h139.243c18.084 0 32.744-14.66 32.744-32.747 0-18.082-14.66-32.742-32.744-32.742h-218.295c-18.084 0-32.744 14.66-32.744 32.742v218.295c0 18.086 14.66 32.747 32.744 32.747s32.744-14.66 32.744-32.747v-139.243l249.715 249.715c12.787 12.787 33.52 12.787 46.307 0zM619.823 340.177c12.787 12.787 33.519 12.787 46.306 0l249.715-249.715v139.243c0 18.086 14.66 32.747 32.747 32.747 18.082 0 32.742-14.66 32.742-32.747v-218.295c0-18.082-14.66-32.742-32.742-32.742h-218.295c-18.086 0-32.747 14.66-32.747 32.742 0 18.086 14.66 32.747 32.747 32.747h139.243l-249.715 249.715c-12.787 12.787-12.787 33.519 0 46.306z" />
<glyph unicode="&#xe915;" glyph-name="filter" d="M182.182 842.667c-45.218 0-69.92-52.739-40.972-87.476l290.252-348.304c17.574-21.086 27.196-47.667 27.196-75.115v-182.438c0-16.785 7.906-32.593 21.333-42.667l68.267-51.2c7.031-5.274 17.067-0.256 17.067 8.533v267.772c0 27.447 9.626 54.029 27.196 75.115l290.253 348.304c28.949 34.737 4.245 87.476-40.973 87.476h-659.618zM92.045 714.218c-63.686 76.422-9.342 192.448 90.138 192.448h659.618c99.482 0 153.826-116.026 90.142-192.448l-290.257-348.305c-7.987-9.583-12.361-21.666-12.361-34.142v-267.772c0-61.53-70.242-96.649-119.467-59.733l-68.267 51.2c-29.545 22.157-46.932 56.934-46.932 93.867v182.438c0 12.476-4.374 24.559-12.361 34.142l-290.253 348.305z" />
<glyph unicode="&#xe916;" glyph-name="geolocalisation" d="M512 960c18.048 0 32.683-14.632 32.683-32.681v-55.706c208.58-15.867 375.061-182.35 390.929-390.93h55.706c18.052 0 32.683-14.635 32.683-32.683s-14.63-32.683-32.683-32.683h-55.706c-15.868-208.58-182.349-375.061-390.929-390.929v-55.706c0-18.052-14.635-32.683-32.683-32.683s-32.683 14.63-32.683 32.683v55.706c-208.581 15.868-375.063 182.349-390.93 390.929h-55.706c-18.049 0-32.681 14.635-32.681 32.683s14.632 32.683 32.681 32.683h55.706c15.867 208.581 182.35 375.063 390.93 390.93v55.706c0 18.049 14.635 32.681 32.683 32.681zM512 807.489c-198.54 0-359.489-160.949-359.489-359.489s160.949-359.488 359.489-359.488c198.541 0 359.488 160.947 359.488 359.488s-160.947 359.489-359.488 359.489zM512 589.617c-78.212 0-141.617-63.405-141.617-141.617s63.405-141.615 141.617-141.615c78.212 0 141.615 63.403 141.615 141.615s-63.403 141.617-141.615 141.617zM305.021 448c0 114.311 92.667 206.979 206.979 206.979s206.98-92.667 206.98-206.979c0-114.313-92.668-206.98-206.98-206.98s-206.979 92.668-206.979 206.98z" />
<glyph unicode="&#xe917;" glyph-name="logout" d="M512 949.333c17.673 0 32-14.327 32-32v-426.662c0-17.677-14.327-32-32-32s-32 14.323-32 32v426.662c0 17.673 14.327 32 32 32zM370.656 851.979c7.076-16.195-0.317-35.060-16.511-42.135-139.456-60.931-236.812-200.052-236.812-361.839 0-217.971 176.698-394.667 394.667-394.667 217.967 0 394.667 176.695 394.667 394.667 0 161.787-97.357 300.908-236.813 361.839-16.192 7.076-23.586 25.94-16.512 42.135 7.078 16.195 25.941 23.587 42.138 16.511 161.924-70.748 275.187-232.355 275.187-420.486 0-253.316-205.35-458.667-458.667-458.667-253.315 0-458.667 205.35-458.667 458.667 0 188.131 113.263 349.737 275.188 420.486 16.195 7.076 35.060-0.317 42.135-16.511z" />
<glyph unicode="&#xe918;" glyph-name="modify" d="M995.243 836.52l-91.076 90.922c-21.909 20.898-51.021 32.557-81.297 32.557-30.281 0-59.392-11.659-81.301-32.557l-643.955-645.023c-3.371-3.452-5.868-7.663-7.281-12.275 0 0 0-0.713 0-1.284l-84.224-292.753c-1.587-5.367-1.695-11.068-0.313-16.491 1.382-5.427 4.202-10.381 8.164-14.34 2.917-2.935 6.386-5.269 10.208-6.861s7.921-2.411 12.061-2.415c2.903 0.009 5.788 0.439 8.565 1.284l292.643 83.644 1.142 0.713c4.643 1.442 8.893 3.934 12.419 7.279l644.244 644.881c21.513 21.613 33.591 50.866 33.591 81.359s-12.079 59.747-33.591 81.36v0zM138.726 211.908l141.896-142.737-198.711-57.092 56.815 199.829zM950.989 718.192l-629.54-630.034-164.736 164.715 629.54 630.179c9.975 9.478 23.211 14.763 36.971 14.763s26.999-5.285 36.975-14.763l90.79-90.923c9.745-9.836 15.211-23.123 15.211-36.969s-5.466-27.132-15.211-36.969v0zM857.344 818.968l-585.287-585.219c-2.906-2.897-4.897-6.588-5.728-10.607s-0.463-8.196 1.056-12.011c1.519-3.81 4.125-7.095 7.492-9.442 3.368-2.351 7.35-3.657 11.454-3.763 5.362 0.171 10.461 2.364 14.275 6.135l585.285 585.217c1.963 1.927 3.524 4.226 4.591 6.762 1.062 2.537 1.613 5.26 1.613 8.011s-0.55 5.475-1.613 8.011c-1.067 2.537-2.628 4.835-4.591 6.762-3.861 3.621-8.951 5.648-14.246 5.674s-10.406-1.949-14.302-5.532v0z" />
<glyph unicode="&#xe919;" glyph-name="phone" d="M358.304 911.069c-0.148 21.472-17.82 38.68-39.288 38.256l-239.96-4.738-8.312-18.451c-76.401-169.597-79.832-364.513-10.864-537.942 34.204-86.016 86.208-166.724 155.898-236.416s150.403-121.694 236.416-155.9c173.427-68.966 368.346-65.536 537.941 10.867l18.453 8.311 4.736 239.957c0.427 21.47-16.785 39.142-38.255 39.287l-269.542 1.852c-10.313 0.073-20.22-3.994-27.507-11.281l-221.478-221.474c-70.834 30.925-137.335 75.46-195.509 133.632-58.175 58.176-102.71 124.676-133.636 195.511l221.475 221.477c7.29 7.29 11.355 17.198 11.284 27.508l-1.851 269.543zM102.874 458.53c-42.941 138.811-36.858 288.894 18.276 422.876l173.333 3.423 1.601-233.088-193.21-193.21zM522.53 38.874l193.212 193.212 233.088-1.604-3.422-173.333c-133.982-55.134-284.066-61.214-422.878-18.274z" />
<glyph unicode="&#xe91a;" glyph-name="pouce-baisse" d="M390.121 53.321c-28.448 8.811-46.263 39.364-41.399 71.002l22.36 145.438c7.894 51.349-28.631 98.091-76.649 98.091h-172.282c-35.026 0-61.295 34.735-54.426 71.97l51.074 276.839c7.604 41.216 36.173 73.611 72.906 82.574 88.184 21.517 156.422 29.629 227.921 25.392 65.606-3.887 135.217-18.237 226.946-43.759v-332.863c0-10.573 1.148-20.873 3.319-30.754-19.772-11.524-37.961-26.948-53.662-43.699-24.593-26.236-45.299-58.069-57.963-89.451l-78.869-195.422c-11.669-28.924-41.274-44.032-69.275-35.358zM662.788 850.901c-93.342 25.963-167.748 41.569-239.529 45.822-79.333 4.701-153.943-4.541-246.181-27.047-63.483-15.49-111.050-70.874-123.592-138.856l-51.074-276.838c-15.112-81.916 42.681-158.336 119.738-158.336h172.282c6.86 0 12.077-6.677 10.95-14.016l-22.36-145.438c-10.433-67.861 27.781-133.402 88.801-152.299 60.061-18.603 123.558 13.807 148.595 75.844l78.865 195.422c8.913 22.084 24.461 46.443 43.665 66.927 12.868 13.73 26.411 24.7 39.526 32.166 22.063-23.838 52.535-38.626 86.208-38.626h133.21c67.439 0 122.108 59.268 122.108 132.378v336.954c0 73.109-54.669 132.375-122.108 132.375h-133.21c-45.316 0-84.821-26.738-105.894-66.432zM901.892 387.831h-133.21c-19.964 0-37.495 11.401-47.317 28.689-5.188 9.135-8.188 19.874-8.188 31.484v336.954c0 5.023 0.559 9.853 1.6 14.444 5.961 26.273 27.878 45.727 53.905 45.727h133.21c30.652 0 55.501-26.939 55.501-60.171v-336.954c0-33.233-24.849-60.173-55.501-60.173z" />
<glyph unicode="&#xe91b;" glyph-name="pouce-leve" d="M633.877 842.681c28.45-8.812 46.263-39.367 41.399-71.004l-22.357-145.439c-7.893-51.346 28.629-98.089 76.646-98.089h172.284c35.025 0 61.295-34.735 54.426-71.97l-51.072-276.838c-7.607-41.216-36.173-73.613-72.909-82.573-88.183-21.517-156.42-29.632-227.921-25.395-65.604 3.887-135.215 18.236-226.945 43.759v332.864c0 10.573-1.149 20.873-3.32 30.754 19.773 11.524 37.961 26.948 53.663 43.699 24.593 26.235 45.299 58.069 57.963 89.449l78.869 195.424c11.669 28.923 41.276 44.033 69.274 35.36zM361.212 45.099c93.341-25.963 167.748-41.57 239.526-45.82 79.334-4.702 153.946 4.54 246.182 27.046 63.484 15.488 111.053 70.874 123.593 138.854l51.072 276.838c15.113 81.916-42.679 158.337-119.735 158.337h-172.284c-6.857 0-12.075 6.677-10.948 14.013l22.362 145.438c10.432 67.861-27.785 133.401-88.802 152.301-60.062 18.603-123.558-13.807-148.595-75.845l-78.867-195.424c-8.911-22.082-24.459-46.441-43.661-66.927-12.87-13.73-26.414-24.698-39.53-32.166-22.062 23.837-52.531 38.626-86.204 38.626h-133.21c-67.439 0-122.109-59.267-122.109-132.377v-336.956c0-73.105 54.67-132.373 122.109-132.373h133.21c45.316 0 84.819 26.739 105.893 66.432zM122.109 508.169h133.21c19.96 0 37.493-11.401 47.316-28.689 5.188-9.135 8.188-19.874 8.188-31.484v-336.956c0-5.022-0.56-9.852-1.601-14.443-5.958-26.274-27.876-45.726-53.903-45.726h-133.21c-30.654 0-55.504 26.94-55.504 60.169v336.956c0 33.233 24.85 60.173 55.504 60.173z" />
<glyph unicode="&#xe91c;" glyph-name="resend" d="M168.542 469.333c0 17.673-14.327 32-32 32s-32-14.327-32-32h64zM887.475 352l-22.882-22.37c6.020-6.161 14.272-9.63 22.882-9.63s16.858 3.469 22.882 9.63l-22.882 22.37zM1004.22 425.63c12.356 12.634 12.13 32.896-0.508 45.252-12.634 12.352-32.896 12.126-45.252-0.512l45.76-44.74zM816.491 470.37c-12.356 12.638-32.619 12.864-45.252 0.512-12.638-12.356-12.864-32.619-0.512-45.252l45.764 44.74zM208.066 725.074c-11.639-13.3-10.292-33.516 3.007-45.155s33.516-10.293 45.155 3.007l-48.162 42.148zM815.949 170.927c11.639 13.299 10.295 33.515-3.004 45.154s-33.519 10.291-45.158-3.008l48.162-42.146zM512.009 96c-189.018 0-343.467 156.915-343.467 352h-64c0-229.069 181.755-416 407.467-416v64zM512.009 800c189.018 0 343.467-156.914 343.467-352h64c0 229.069-181.756 416-407.467 416v-64zM168.542 448v21.333h-64v-21.333h64zM855.475 448v-96h64v96h-64zM910.357 329.63l93.862 96-45.76 44.74-93.867-96 45.764-44.74zM910.357 374.37l-93.867 96-45.764-44.74 93.867-96 45.764 44.74zM256.228 682.926c63.023 72.014 154.322 117.074 255.781 117.074v64c-120.943 0-229.463-53.821-303.942-138.926l48.162-42.148zM767.787 213.073c-63.019-72.013-154.321-117.073-255.778-117.073v-64c120.943 0 229.461 53.82 303.94 138.927l-48.162 42.146z" />
<glyph unicode="&#xe91d;" glyph-name="save" d="M170.667 842.667c-29.455 0-53.333-23.878-53.333-53.333v-682.667c0-29.457 23.878-53.333 53.333-53.333h53.333v224c0 64.802 52.532 117.333 117.333 117.333h341.333c64.802 0 117.333-52.531 117.333-117.333v-224h53.333c29.457 0 53.333 23.876 53.333 53.333v541.412l-194.59 194.588h-40.077v-181.333c0-64.801-52.531-117.333-117.333-117.333h-213.333c-64.801 0-117.333 52.532-117.333 117.333v181.333h-53.333zM288 842.667v-181.333c0-29.455 23.878-53.333 53.333-53.333h213.333c29.457 0 53.333 23.878 53.333 53.333v181.333h-320zM736 53.333v224c0 29.457-23.876 53.333-53.333 53.333h-341.333c-29.455 0-53.333-23.876-53.333-53.333v-224h448zM53.333 789.333c0 64.801 52.532 117.333 117.333 117.333h554.667c8.486 0 16.627-3.372 22.626-9.373l213.333-213.333c6.003-6.001 9.374-14.141 9.374-22.627v-554.667c0-64.802-52.531-117.333-117.333-117.333h-682.667c-64.801 0-117.333 52.531-117.333 117.333v682.667zM512 778.667c17.673 0 32-14.327 32-32v-42.667c0-17.673-14.327-32-32-32s-32 14.327-32 32v42.667c0 17.673 14.327 32 32 32z" />
<glyph unicode="&#xe91e;" glyph-name="search" d="M938.667 65.865l-238.447 239.71c118.413 142.874 103.637 353.583-33.557 478.533-137.19 124.949-348.361 120.020-479.576-11.194s-136.143-342.385-11.194-479.576c124.95-137.195 335.659-151.97 478.533-33.557l239.71-238.447 44.531 44.531zM149.108 526.652c0 156.981 127.259 284.24 284.24 284.24 156.983 0 284.241-127.259 284.241-284.24 0-156.983-127.258-284.241-284.241-284.241-156.981 0-284.24 127.258-284.24 284.241z" />
<glyph unicode="&#xe91f;" glyph-name="share" d="M808.969 313.903c-51.708 0-99.968-23.467-134.443-63.693l-251.651 154.21c10.341 30.17 10.341 60.343 0 87.159l251.651 154.211c31.027-40.228 79.287-63.695 134.443-63.695 96.525 0 172.365 73.752 172.365 167.619s-75.84 167.619-172.365 167.619c-96.521 0-172.361-73.752-172.361-167.619 0-16.762 3.443-30.171 6.891-43.581l-251.649-154.21c-58.604 73.753-168.916 83.81-241.309 26.819-75.84-56.989-86.182-164.266-27.578-234.666 58.604-73.754 168.916-83.81 241.309-26.82 10.342 6.707 20.684 16.764 27.578 26.82l251.649-154.21c-3.447-13.41-6.891-30.17-6.891-43.58 0-93.867 75.84-167.62 172.361-167.62 96.525 0 172.365 73.754 172.365 167.62s-75.84 167.616-172.365 167.616zM808.969 850.286c58.603 0 103.42-43.581 103.42-100.571s-44.817-100.571-103.42-100.571c-58.603 0-103.415 43.581-103.415 100.571s48.26 100.571 103.415 100.571zM257.406 347.43c-58.604 0-103.418 43.58-103.418 100.57s44.815 100.571 103.418 100.571c58.604 0 103.418-43.581 103.418-100.571s-44.815-100.57-103.418-100.57zM808.969 45.713c-58.603 0-103.415 43.584-103.415 100.574s44.813 100.57 103.415 100.57c58.603 0 103.42-43.58 103.42-100.57s-44.817-100.574-103.42-100.574z" />
<glyph unicode="&#xe920;" glyph-name="table-scroll" d="M298.667 448l50.133-50.133-127.289-127.646h717.155v-71.108h-717.155l127.289-127.646-50.133-50.133-213.333 213.333 213.333 213.333zM725.333 874.667l213.333-213.333-213.333-213.333-50.133 50.133 127.287 127.645h-717.154v71.111h717.154l-127.287 127.645 50.133 50.133z" />
<glyph unicode="&#xe921;" glyph-name="upload" d="M227.555 397.713l40.107-40.823 215.892 219.461v-555.017h56.892v555.017l215.893-219.461 40.107 40.823-284.446 289.525-284.445-289.525zM227.555 658.286v115.81h568.89v-115.81h56.887v115.81c0 31.98-25.472 57.905-56.887 57.905h-568.89c-31.419 0-56.889-25.925-56.889-57.905v-115.81h56.889z" />
<glyph unicode="&#xe922;" glyph-name="zoom-in" d="M426.667 650.667c17.673 0 32-14.327 32-32v-53.333h53.333c17.673 0 32-14.327 32-32s-14.327-32-32-32h-53.333v-53.333c0-17.673-14.327-32-32-32s-32 14.327-32 32v53.333h-53.333c-17.673 0-32 14.327-32 32s14.327 32 32 32h53.333v53.333c0 17.673 14.327 32 32 32zM938.667 65.865l-238.447 239.71c118.413 142.874 103.637 353.583-33.557 478.533-137.19 124.949-348.361 120.020-479.576-11.194s-136.143-342.385-11.194-479.576c124.95-137.195 335.659-151.97 478.533-33.557l239.71-238.447 44.531 44.531zM149.108 526.652c0 156.981 127.259 284.24 284.24 284.24 156.983 0 284.241-127.259 284.241-284.24 0-156.983-127.258-284.241-284.241-284.241-156.981 0-284.24 127.258-284.24 284.241z" />
<glyph unicode="&#xe923;" glyph-name="zoom-out" d="M309.333 533.333c0 17.673 14.327 32 32 32h170.667c17.673 0 32-14.327 32-32s-14.327-32-32-32h-170.667c-17.673 0-32 14.327-32 32zM938.667 65.865l-238.447 239.71c118.413 142.874 103.637 353.583-33.557 478.533-137.19 124.949-348.361 120.020-479.576-11.194s-136.143-342.385-11.194-479.576c124.95-137.195 335.659-151.97 478.533-33.557l239.71-238.447 44.531 44.531zM149.108 526.652c0 156.981 127.259 284.24 284.24 284.24 156.983 0 284.241-127.259 284.241-284.24 0-156.983-127.258-284.241-284.241-284.241-156.981 0-284.24 127.258-284.24 284.241z" />
<glyph unicode="&#xe924;" glyph-name="facebook" d="M406.271-64v481.882h-192.927v180.706h192.927v97.039c0 183.717 95.8 264.372 252.41 264.372 75.002 0 114.662-5.421 133.446-7.891v-172.815h-106.816c-66.477 0-86.113-34.214-86.113-103.484v-77.222h191.259l-26.438-180.706h-164.82v-481.882h-192.927z" />
<glyph unicode="&#xe925;" glyph-name="linkedin" d="M230.4-59.75h-213.334v684.082h213.334v-684.082zM123.734 713.56c-68.336 0-123.734 55.167-123.734 123.22s55.397 123.22 123.734 123.22c68.336 0 123.732-55.167 123.732-123.22 0-32.68-13.036-64.022-36.24-87.13s-54.676-36.090-87.492-36.090zM1024-59.75h-213.338v331.418c0 80.732 0 178.458-110.925 178.458-110.938 0-128.003-84.982-128.003-174.208v-339.917h-213.335v688.332h204.8v-97.724h4.265c39.624 72.487 117.815 115.563 200.535 110.472 213.338 0 256-140.214 256-322.922v-373.907z" />
<glyph unicode="&#xe926;" glyph-name="pinterst" d="M542.903-64.013h-55.908c-20.728 2.694-41.567 4.71-62.162 8.269-18.762 3.226-37.235 8.109-56.040 12.326 11.933 22.522 23.49 43.027 33.832 64.083 17.524 35.821 24.308 75.136 34.429 113.235 6.276 23.507 12.154 47.13 18.695 72.589 13.7-22.675 32.484-36.416 53.919-47.11 40.152-20.045 82.271-19.891 124.633-10.586 76.97 16.902 131.46 64.083 170.154 130.906 29.459 50.827 44.198 106.58 49.658 164.764 3.795 40.241 4.282 80.503-7.098 119.816-30.938 106.822-103.507 173.094-206.925 205.997-85.563 27.247-172.055 22.098-255.342-9.789-123.749-47.422-199.391-136.035-215.5-269.772-6.858-53.62 3.825-108.019 30.451-155.062 15.562-28.242 40.185-50.424 69.896-62.956 15.358-6.63 23.114-3.072 27.866 12.73 3.138 10.496 4.906 21.434 8.574 31.731 5.48 15.467 1.127 27.621-7.713 40.88-9.988 14.982-19.491 31.335-24.418 48.461-13.414 46.649-8.243 93.276 9.48 137.803 26.805 67.289 73.675 115.551 142.665 140.013 52.107 18.496 105.695 19.269 159.304 7.756 81.61-17.524 139.505-84.436 144.938-167.945 3.622-49.853-1.978-99.948-16.525-147.77-12.819-41.367-31.072-80.018-62.829-110.668-28.968-27.974-63.684-39.334-103.394-31.686-34.12 6.63-74.338 42.426-57.764 101.363 11.049 39.644 23.004 79.089 34.208 118.71 6.276 22.098 10.563 44.594 9.038 67.863-2.1 31.644-22.099 57.278-50.605 64.327-32.683 8.066-67.222-5.768-88.812-37.765-34.65-51.356-33.633-106.623-15.624-163.371 1.923-6.010 3.757-13.082 2.409-18.916-15.822-68.614-32.506-137.005-48.483-205.51-9.856-42.342-22.496-84.237-23.38-128.173-0.353-17.21 0-34.47 0-52.698-3.094 0.947-4.662 1.235-6.077 1.875-78.082 35.034-145.923 89.427-197.092 158.022-56.372 74.426-90.646 157.824-100.259 251.211-6.629 65.609-2.806 130.378 15.292 193.711 33.368 116.677 99.441 210.837 198.882 280.799 109.385 77.012 231.322 104.546 363.292 88.149 74.218-9.145 145.284-35.493 207.524-76.945 119.59-78.89 194.253-188.474 223.981-328.753 4.755-22.65 6.63-45.875 9.946-68.835v-63.907c-1.459-12.463-2.694-24.971-4.416-37.412-10.298-74.537-35.136-143.791-76.486-206.774-79.085-120.39-189.114-195.853-330.23-225.152-23.004-4.8-46.649-6.63-69.984-9.837z" />
<glyph unicode="&#xe927;" glyph-name="twitter" d="M1024 790.344c-37.888-19.884-79.002-31.837-121.12-35.213 44.755 27.354 77.69 72.294 91.757 125.203-40.749-26.243-85.453-44.775-132.128-54.777-58.982 66.719-150.125 88.434-230.135 54.833-80.013-33.602-132.774-115.75-133.218-207.424 0-19.563 3.667-35.213 3.667-50.864-169.508 7.422-327.598 93.114-433.088 234.756-19.105-35.778-29.219-76.209-29.362-117.378-0.693-75.953 35.371-146.929 95.427-187.805-33.356 1.222-66.004 10.593-95.427 27.388v-3.912c-0.126-106.683 70.639-198.518 168.832-219.106-18.067-4.525-36.506-7.143-55.054-7.825-13.562-0.642-27.142 0.672-40.372 3.913 28.378-91.589 107.733-154.258 198.193-156.504-74.477-62.138-166.023-96.499-260.588-97.818-17.21-0.646-34.435 0.672-51.383 3.917 96.489-65.741 208.47-101.011 322.982-101.728 389.050 0 598.253 344.308 598.253 637.753v27.388c39.053 36.964 73.581 79.030 102.765 125.203z" />
<glyph unicode="&#xe928;" glyph-name="youtube" d="M1013.030 667.428c-5.562 39.341-19.315 76.838-40.23 109.715-27.872 28.15-64.154 44.809-102.4 47.020-142.63 7.837-358.4 7.837-358.4 7.837s-215.772 0-358.4-11.756c-38.457 2.941-76.095-12.9-102.4-43.101-21.456-32.569-35.257-70.207-40.229-109.715-6.735-58.509-10.397-117.377-10.971-176.324v-82.287c0.387-58.958 4.051-117.841 10.971-176.324 5.56-39.341 19.309-76.838 40.229-109.715 31.49-29.408 71.61-46.048 113.372-47.021 80.457-7.84 347.428-11.757 347.428-11.757s215.77 0 358.4 11.757c38.246 2.214 74.528 18.867 102.4 47.021 21.459 32.57 35.258 70.202 40.23 109.715 6.733 58.502 10.4 117.376 10.97 176.324v82.287c-0.57 58.947-4.237 117.816-10.97 176.324zM405.943 306.938v309.552l277.942-152.818-277.942-156.734z" />
<glyph unicode="&#xe929;" glyph-name="arrow-bottom" horiz-adv-x="983" d="M514.085-61.886c-2.626-1.208-5.251-1.208-7.877-1.507-1.167 0-2.044-0.606-3.211-0.606s-2.044 0.606-3.211 0.606c-2.626 0.299-5.251 0.602-7.877 1.81-2.92 1.208-5.255 3.023-7.59 5.136-0.582 0.606-1.458 0.606-2.040 1.212l-309.904 320.93c-11.381 11.784-11.381 30.822 0 42.611 11.38 11.784 29.764 11.784 41.145 0l260.296-269.558v850.072c0 16.621 13.132 30.219 29.18 30.219s29.18-13.599 29.18-30.219v-850.375l260.297 269.558c11.379 11.784 29.766 11.784 41.144 0 5.546-5.743 8.462-13.296 8.462-21.156 0-8.159-2.916-15.712-8.462-21.152l-309.903-320.93c-0.582-0.606-1.167-0.909-1.749-1.212-2.626-2.417-4.96-4.227-7.881-5.439z" />
<glyph unicode="&#xe92a;" glyph-name="arrow-left" d="M2.517 424.67c-1.259 2.735-1.259 5.47-1.573 8.205 0 1.216-0.629 2.125-0.629 3.341s0.629 2.129 0.629 3.345c0.315 2.735 0.629 5.47 1.888 8.205 1.259 3.038 3.147 5.47 5.35 7.898 0.629 0.61 0.629 1.519 1.259 2.129l334.201 322.715c12.273 11.852 32.098 11.852 44.371 0s12.273-30.995 0-42.846l-280.703-271.058h885.22c17.31 0 31.471-13.675 31.471-30.387s-14.161-30.387-31.471-30.387h-885.535l280.703-271.057c12.273-11.853 12.273-30.993 0-42.846-5.979-5.773-13.846-8.815-22.028-8.815-8.497 0-16.364 3.042-22.028 8.815l-334.201 322.714c-0.629 0.61-0.944 1.216-1.259 1.826-2.518 2.735-4.406 5.167-5.664 8.205z" />
<glyph unicode="&#xe92b;" glyph-name="arrow-right" d="M1021.483 447.829c1.259-2.735 1.259-5.47 1.574-8.205 0-1.212 0.627-2.125 0.627-3.341s-0.627-2.129-0.627-3.341c-0.316-2.735-0.631-5.47-1.89-8.205-1.259-3.042-3.145-5.47-5.35-7.902-0.627-0.61-0.627-1.519-1.259-2.129l-334.199-322.714c-12.271-11.853-32.098-11.853-44.369 0-12.275 11.849-12.275 30.993 0 42.846l280.7 271.057h-885.22c-17.308 0-31.469 13.675-31.469 30.387s14.161 30.387 31.469 30.387h885.536l-280.704 271.057c-12.271 11.852-12.271 30.996 0 42.847 5.982 5.774 13.85 8.812 22.029 8.812 8.499 0 16.367-3.039 22.029-8.812l334.199-322.715c0.631-0.61 0.947-1.216 1.259-1.826 2.517-2.735 4.407-5.163 5.666-8.205z" />
<glyph unicode="&#xe92c;" glyph-name="arrow-top" horiz-adv-x="983" d="M491.635 917.225c2.626 1.209 5.251 1.209 7.877 1.511 1.167 0 2.044 0.604 3.211 0.604s2.044-0.604 3.211-0.604c2.626-0.302 5.251-0.605 7.877-1.813 2.92-1.209 5.255-3.022 7.59-5.137 0.582-0.605 1.458-0.605 2.040-1.209l309.903-320.931c11.383-11.785 11.383-30.824 0-42.608-11.379-11.788-29.766-11.788-41.144 0l-260.297 269.557v-850.074c0-16.622-13.128-30.22-29.18-30.22-16.048 0-29.18 13.599-29.18 30.22v850.377l-260.295-269.56c-11.38-11.784-29.764-11.784-41.145 0-5.544 5.744-8.462 13.298-8.462 21.155 0 8.159 2.918 15.714 8.462 21.154l309.903 320.931c0.582 0.604 1.167 0.906 1.749 1.209 2.63 2.417 4.964 4.231 7.881 5.439z" />
<glyph unicode="&#xe92d;" glyph-name="carret-down" d="M682.667 533.333l-170.667-170.667-170.667 170.667h341.333z" />
<glyph unicode="&#xe92e;" glyph-name="carret-left" d="M597.333 277.333l-170.667 170.667 170.667 170.667v-341.333z" />
<glyph unicode="&#xe92f;" glyph-name="carret-right" d="M426.667 618.667l170.667-170.667-170.667-170.667v341.333z" />
<glyph unicode="&#xe930;" glyph-name="carret-top" d="M341.333 362.667l170.667 170.667 170.667-170.667h-341.333z" />
<glyph unicode="&#xe931;" glyph-name="chevron-bottom" d="M512 234.667l-384 373.81 54.298 52.857 329.702-320.951 329.702 320.951 54.298-52.857-384-373.81z" />
<glyph unicode="&#xe932;" glyph-name="chevron-right" d="M725.333 448l-373.81-384-52.857 54.298 320.951 329.702-320.951 329.702 52.857 54.298 373.81-384z" />
<glyph unicode="&#xe933;" glyph-name="chevron-top" d="M512 661.333l384-373.811-54.298-52.855-329.702 320.953-329.702-320.953-54.298 52.855 384 373.811z" />
<glyph unicode="&#xe934;" glyph-name="chveron-left" d="M298.667 448l373.811 384 52.855-54.298-320.953-329.702 320.953-329.702-52.855-54.298-373.811 384z" />
<glyph unicode="&#xe935;" glyph-name="delete" d="M469.333 885.333h85.333c29.457 0 53.333-23.878 53.333-53.333v-53.333h-192v53.333c0 29.455 23.876 53.333 53.333 53.333zM672 778.667h224c17.673 0 32-14.327 32-32s-14.327-32-32-32h-14.025l-73.737-663.625c-6.601-59.422-56.828-104.375-116.617-104.375h-359.245c-59.787 0-110.013 44.954-116.616 104.375l-73.736 663.625h-14.025c-17.673 0-32 14.327-32 32s14.327 32 32 32h224v53.333c0 64.801 52.532 117.333 117.333 117.333h85.333c64.802 0 117.333-52.532 117.333-117.333v-53.333zM817.583 714.667h-611.164l72.951-656.555c3.001-27.012 25.831-47.445 53.007-47.445h359.245c27.179 0 50.005 20.433 53.009 47.445l72.951 656.555zM426.667 565.333c-17.673 0-32-14.327-32-32v-341.333c0-17.673 14.327-32 32-32s32 14.327 32 32v341.333c0 17.673-14.327 32-32 32zM597.333 565.333c-17.673 0-32-14.327-32-32v-341.333c0-17.673 14.327-32 32-32s32 14.327 32 32v341.333c0 17.673-14.327 32-32 32z" />
<glyph unicode="&#xe936;" glyph-name="send" d="M918.524 768.311c18.667 44.118-25.783 88.564-69.901 69.899l-698.731-295.617c-45.917-19.427-42.445-85.624 5.252-100.139l221.976-67.558c8.088-2.462 15.797-5.76 23.027-9.796l223.226 223.226c12.497 12.497 32.759 12.497 45.257 0s12.497-32.758 0-45.255l-223.223-223.223c4.036-7.236 7.339-14.946 9.801-23.040l67.558-221.973c14.515-47.701 80.717-51.17 100.143-5.252l295.616 698.73zM823.689 897.152c97.058 41.064 194.842-56.719 153.775-153.778l-295.616-698.732c-42.739-101.018-188.373-93.38-220.309 11.554l-67.558 221.978c-2.589 8.503-7.208 16.081-13.313 22.187-6.103 6.101-13.677 10.718-22.181 13.308l-221.976 67.554c-104.934 31.94-112.573 177.574-11.555 220.312l698.733 295.617z" />
<glyph unicode="&#xe937;" glyph-name="talk" d="M511.991 842.667c-217.968 0-394.666-176.698-394.666-394.667 0-75.682 21.271-146.295 58.144-206.306l8.678-14.123-70.058-163.469c-3.793-8.849 5.155-17.796 14.006-14.003l163.468 70.054 14.123-8.678c60.009-36.873 130.623-58.142 206.305-58.142 217.967 0 394.667 176.7 394.667 394.667s-176.7 394.667-394.667 394.667zM53.325 448c0 253.315 205.352 458.667 458.666 458.667 253.316 0 458.667-205.352 458.667-458.667 0-253.316-205.35-458.667-458.667-458.667-81.847 0-158.765 21.466-225.342 59.085l-133.343-57.148c-61.952-26.547-124.593 36.092-98.042 98.044l57.147 133.342c-37.621 66.577-59.086 143.497-59.086 225.344zM309.325 533.333c0 17.673 14.327 32 32 32h128c17.673 0 32-14.327 32-32s-14.327-32-32-32h-128c-17.673 0-32 14.327-32 32zM309.325 362.667c0 17.673 14.327 32 32 32h341.333c17.673 0 32-14.327 32-32s-14.327-32-32-32h-341.333c-17.673 0-32 14.327-32 32z" />
</font>
</defs>
</svg>
