<svg width="42" height="42" viewBox="0 0 42 42" fill="none" xmlns="http://www.w3.org/2000/svg">
<g clip-path="url(#clip0_287_169)">
<path d="M25.5816 29.5799C25.5968 28.0665 26.8356 26.8725 28.3039 26.8873C29.7938 26.902 30.9868 28.1203 30.9721 29.6336C30.9573 31.147 29.7396 32.341 28.2497 32.3262C26.7814 32.3115 25.5668 31.0932 25.5816 29.5799ZM31.0179 3.13959C30.9963 5.31054 30.5693 8.53061 29.9565 12.8451L28.6756 22.5923L28.018 22.5854L26.9546 12.7924C26.4502 8.46632 26.0659 5.26048 26.0875 3.08953C26.1064 1.22578 27.0393 -0.0151414 28.5729 0.000139556C30.1065 0.0154205 31.0363 1.27478 31.0179 3.13906V3.13959Z" fill="#FBFBFB"/>
<path d="M18.1542 31.8304C15.0433 24.4354 13.3038 22.6428 12.8184 22.2539C16.6469 21.8724 20.6502 19.8274 20.7154 15.2864C20.7486 12.9784 20.2048 11.8012 18.7222 10.163C17.0539 8.31876 13.6971 7.72913 11.4649 7.59529C10.6625 7.54733 9.85495 7.56736 9.04998 7.5663C7.53744 7.56525 3.83268 7.56262 2.31962 7.56104H0V7.76338C0.341677 7.81185 1.96478 8.15594 2.33067 9.2372C2.56969 9.94328 2.66972 10.7195 2.67814 12.2929V31.1343C2.6655 34.1136 2.60128 34.4993 2.3333 34.8924C1.46569 36.1649 0.333254 36.1744 0.00263234 36.2255V36.4278H9.40166V36.2255C9.07104 36.1744 7.9386 36.1644 7.07046 34.8918C6.82618 34.5335 6.74563 34.1805 6.7251 31.8599C6.7251 31.8599 6.71983 24.5714 6.7272 22.3003C6.91252 22.3003 7.10521 22.3035 7.30158 22.3077C13.0122 24.4765 13.3896 32.2461 16.2205 36.0242C22.9877 46.0227 36.1994 41.5069 42 36.6692C27.1768 40.8619 20.7323 37.9591 18.1542 31.8314V31.8304ZM6.7272 12.5142V12.5179C6.7272 12.011 6.65244 9.48328 6.9678 8.83726C7.46005 7.82766 8.64881 7.99523 9.49958 7.98996C10.8821 7.98153 12.2904 8.16806 13.5876 8.69025C16.0931 9.69826 17.4124 11.5857 17.455 14.3995C17.4877 16.5415 16.8059 18.088 15.4323 19.6862C14.7327 20.5003 14.2531 21.0288 13.3907 21.3624C12.382 21.7523 11.2764 21.8761 10.1087 21.8798C9.01681 21.8798 6.73826 21.8535 6.73826 21.8535C6.73826 21.8535 6.72668 13.5917 6.72668 12.5142H6.7272Z" fill="#FBFBFB"/>
</g>
<defs>
<clipPath id="clip0_287_169">
<rect width="42" height="42" fill="white"/>
</clipPath>
</defs>
</svg>
