<svg width="32" height="32" viewBox="0 0 32 32" fill="none" xmlns="http://www.w3.org/2000/svg">
<g clip-path="url(#clip0_688_183)">
<path d="M19.4907 22.5369C19.5024 21.3839 20.4462 20.4742 21.5649 20.4854C22.7001 20.4967 23.609 21.4249 23.5978 22.5779C23.5865 23.7309 22.6588 24.6406 21.5236 24.6294C20.4049 24.6181 19.4795 23.6899 19.4907 22.5369ZM23.6327 2.39194C23.6162 4.046 23.2909 6.49939 22.824 9.78663L21.8481 17.213L21.3471 17.2078L20.5368 9.74648C20.1526 6.45041 19.8598 4.00786 19.8762 2.35381C19.8906 0.933804 20.6014 -0.0116584 21.7699 -1.57419e-05C22.9383 0.0116269 23.6467 0.971141 23.6327 2.39154V2.39194Z" fill="#FBFBFB"/>
<path d="M13.8318 24.2516C11.4615 18.6174 10.1363 17.2516 9.76642 16.9553C12.6834 16.6646 15.7335 15.1065 15.7832 11.6466C15.8085 9.8882 15.3941 8.99131 14.2646 7.74314C12.9934 6.338 10.4359 5.88875 8.73515 5.78678C8.12385 5.75024 7.50853 5.7655 6.89522 5.7647C5.74281 5.76389 2.92014 5.76189 1.76733 5.76068H0V5.91485C0.260326 5.95178 1.49697 6.21394 1.77575 7.03776C1.95786 7.57573 2.03407 8.16709 2.04049 9.36588V23.7213C2.03086 25.9912 1.98192 26.2851 1.77776 26.5845C1.11671 27.5541 0.253908 27.5613 0.00200559 27.6003V27.7544H7.16317V27.6003C6.91126 27.5613 6.04846 27.5537 5.38702 26.5841C5.2009 26.3111 5.13953 26.0422 5.12388 24.2741C5.12388 24.2741 5.11987 18.7209 5.12549 16.9906C5.26668 16.9906 5.41349 16.993 5.56311 16.9962C9.91403 18.6487 10.2016 24.5684 12.3584 27.4469C17.5144 35.0648 27.5805 31.6242 32 27.9383C20.7061 31.1328 15.796 28.9211 13.8318 24.2524V24.2516ZM5.12549 9.5345V9.53731C5.12549 9.1511 5.06853 7.22525 5.3088 6.73304C5.68384 5.96383 6.58957 6.09149 7.23778 6.08748C8.29111 6.08105 9.3641 6.22317 10.3525 6.62103C12.2614 7.38904 13.2666 8.82711 13.2991 10.971C13.3239 12.6029 12.8045 13.7813 11.758 14.9989C11.2249 15.6192 10.8595 16.0219 10.2024 16.276C9.4339 16.5731 8.59155 16.6674 7.70187 16.6702C6.86995 16.6702 5.13391 16.6502 5.13391 16.6502C5.13391 16.6502 5.12509 10.3555 5.12509 9.5345H5.12549Z" fill="#FBFBFB"/>
</g>
<defs>
<clipPath id="clip0_688_183">
<rect width="32" height="32" fill="white"/>
</clipPath>
</defs>
</svg>
